<?xml version="1.0" encoding="UTF-8"?>
<svg width="112px" height="48px" viewBox="0 0 112 48" version="1.1" xmlns="http://www.w3.org/2000/svg" xmlns:xlink="http://www.w3.org/1999/xlink">
    <title>Group 16</title>
    <g id="Page-1" stroke="none" stroke-width="1" fill="none" fill-rule="evenodd">
        <g id="Desktop-HD" transform="translate(-30.000000, -30.000000)" fill="#FFFFFF">
            <g id="Group-16" transform="translate(30.000000, 30.000000)">
                <path d="M65.5565196,0 L65.556,9.708 L70.6739551,9.70835526 L70.6739551,21.2514474 L70.7979068,21.2514474 C72.0167654,18.6195395 74.4751413,17.0445395 77.6359103,17.0445395 C83.2137379,17.0445395 86.6430689,21.3343421 86.6430689,28.5047368 C86.6430689,35.6544079 83.2343965,39.9649342 77.6565689,39.9649342 C74.5177913,39.9649342 72.094864,38.4899082 70.8371437,36.0469746 L70.7152723,35.7994737 L70.5913206,35.7994737 L70.5913206,39.6126316 L65.556,39.612 L65.5565196,48 L0.28,48 L0.28,0 L65.5565196,0 Z M14.4636188,9.70835526 L8.4313015,9.70835526 L8.4313015,39.6126316 L14.3809843,39.6126316 L14.3809843,35.7994737 L14.504936,35.7994737 C15.7237946,38.3899342 18.2028291,39.9649342 21.4462326,39.9649342 C27.0240602,39.9649342 30.4327326,35.6544079 30.4327326,28.5047368 C30.4327326,21.3343421 27.0034015,17.0445395 21.4255739,17.0445395 C18.264805,17.0445395 15.8064291,18.6195395 14.5875705,21.2514474 L14.4636188,21.2514474 L14.4636188,9.70835526 Z M107.549593,12.2780921 L107.549593,17.3968421 L111.64,17.3968421 L111.64,21.9560526 L107.549593,21.9560526 L107.549593,32.5873026 C107.549593,34.2866447 108.375938,35.0948684 110.152579,35.0948684 C110.612971,35.0948684 111.088541,35.0644173 111.449194,35.0165655 L111.619341,34.99125 L111.619341,39.4468421 C110.999583,39.5919079 109.966652,39.6955263 108.747793,39.6955263 C103.641936,39.6955263 101.59632,38.0210465 101.51953,33.8704987 L101.517276,33.6234868 L101.517276,21.9560526 L98.3978241,21.9560526 L98.3978241,17.3968421 L101.517276,17.3968421 L101.517276,12.2780921 L107.549593,12.2780921 Z M95.898131,17.3968421 L95.898131,39.6126316 L89.8658137,39.6126316 L89.8658137,17.3968421 L95.898131,17.3968421 Z M39.7291119,9.70835526 L33.6967947,9.70835526 L33.6967947,39.6126316 L39.7291119,39.6126316 L39.7291119,9.70835526 Z M49.9757878,9.70835526 L43.9434706,9.70835526 L43.9434706,39.6126316 L49.9757878,39.6126316 L49.9757878,32.2764474 L51.545843,30.5771053 L57.8880396,39.6126316 L64.8293361,39.6126316 L55.9667878,26.9297368 L64.4161637,17.3968421 L57.5781603,17.3968421 L50.0584223,26.3080263 L49.9757878,26.3080263 L49.9757878,9.70835526 Z M75.5700482,21.8938816 C72.6571827,21.8938816 70.6532964,24.5257895 70.6532964,28.5047368 C70.6532964,32.5251316 72.636524,35.0948684 75.5700482,35.0948684 C78.5862068,35.0948684 80.4661413,32.5665789 80.4661413,28.5047368 C80.4661413,24.4636184 78.5655482,21.8938816 75.5700482,21.8938816 Z M19.3597119,21.8938816 C22.3552119,21.8938816 24.255805,24.4636184 24.255805,28.5047368 C24.255805,32.5665789 22.3758705,35.0948684 19.3597119,35.0948684 C16.4261877,35.0948684 14.4429601,32.5251316 14.4429601,28.5047368 C14.4429601,24.5257895 16.4468463,21.8938816 19.3597119,21.8938816 Z M92.8613137,8.17480263 C94.6172965,8.17480263 96.0014241,9.56328947 96.0014241,11.2833553 C96.0014241,12.9826974 94.6172965,14.3919079 92.8613137,14.3919079 C91.105331,14.3919079 89.7212034,12.9826974 89.7212034,11.2833553 C89.7212034,9.56328947 91.105331,8.17480263 92.8613137,8.17480263 Z" id="Combined-Shape"></path>
            </g>
        </g>
    </g>
</svg>